<?xml version="1.0" encoding="utf-8"?>
<!-- Generator: Adobe Illustrator 25.0.0, SVG Export Plug-In . SVG Version: 6.00 Build 0)  -->
<svg version="1.1" xmlns="http://www.w3.org/2000/svg" xmlns:xlink="http://www.w3.org/1999/xlink" x="0px" y="0px"
	 viewBox="0 0 500 500" style="enable-background:new 0 0 500 500;" xml:space="preserve">
<style type="text/css">
	.st0{fill:none;stroke:#000000;stroke-width:35;stroke-linecap:round;stroke-miterlimit:10;}
</style>
<g id="图层_2">
	<line class="st0" x1="299.2" y1="330" x2="358.5" y2="393.6"/>
	<line class="st0" x1="476" y1="267" x2="358.5" y2="393.6"/>
	<path class="st0" d="M471.6,350.2c-1.5,38.3-22.3,74.9-58.2,94.8c-54.7,30.3-123.6,10.6-153.9-44.1S249,277.3,303.6,247
		c35.8-19.8,77.7-18.2,110.9,0.6"/>
</g>
<g id="图层_3">
	<path class="st0" d="M251.1,381.7H67c-6.6,0-12-5.4-12-12V81c0-6.6,5.4-12,12-12h323.3c6.6,0,12,5.4,12,12v160.6"/>
	<line class="st0" x1="55" y1="137.4" x2="402.3" y2="137.4"/>
	<path class="st0" d="M104.3,194h-4c-0.3,0-0.5-0.2-0.5-0.5v-4c0-0.3,0.2-0.5,0.5-0.5h4c0.3,0,0.5,0.2,0.5,0.5v4
		C104.8,193.8,104.6,194,104.3,194z"/>
	<path class="st0" d="M167.1,194h-4c-0.3,0-0.5-0.2-0.5-0.5v-4c0-0.3,0.2-0.5,0.5-0.5h4c0.3,0,0.5,0.2,0.5,0.5v4
		C167.6,193.8,167.4,194,167.1,194z"/>
	<path class="st0" d="M104.3,338h-4c-0.3,0-0.5-0.2-0.5-0.5v-4c0-0.3,0.2-0.5,0.5-0.5h4c0.3,0,0.5,0.2,0.5,0.5v4
		C104.8,337.8,104.6,338,104.3,338z"/>
	<path class="st0" d="M167.1,338h-4c-0.3,0-0.5-0.2-0.5-0.5v-4c0-0.3,0.2-0.5,0.5-0.5h4c0.3,0,0.5,0.2,0.5,0.5v4
		C167.6,337.8,167.4,338,167.1,338z"/>
	<path class="st0" d="M104.3,266h-4c-0.3,0-0.5-0.2-0.5-0.5v-4c0-0.3,0.2-0.5,0.5-0.5h4c0.3,0,0.5,0.2,0.5,0.5v4
		C104.8,265.8,104.6,266,104.3,266z"/>
	<path class="st0" d="M167.1,266h-4c-0.3,0-0.5-0.2-0.5-0.5v-4c0-0.3,0.2-0.5,0.5-0.5h4c0.3,0,0.5,0.2,0.5,0.5v4
		C167.6,265.8,167.4,266,167.1,266z"/>
	<path class="st0" d="M229.9,194h-4c-0.3,0-0.5-0.2-0.5-0.5v-4c0-0.3,0.2-0.5,0.5-0.5h4c0.3,0,0.5,0.2,0.5,0.5v4
		C230.4,193.8,230.2,194,229.9,194z"/>
	<path class="st0" d="M292.7,194h-4c-0.3,0-0.5-0.2-0.5-0.5v-4c0-0.3,0.2-0.5,0.5-0.5h4c0.3,0,0.5,0.2,0.5,0.5v4
		C293.2,193.8,293,194,292.7,194z"/>
</g>
</svg>
